<svg width="48" height="48" viewBox="0 0 48 48" fill="none" xmlns="http://www.w3.org/2000/svg">
<path fill-rule="evenodd" clip-rule="evenodd" d="M24 0C10.7452 0 0 10.7452 0 24C0 37.2548 10.7452 48 24 48C37.2548 48 48 37.2548 48 24C48 10.7452 37.2548 0 24 0ZM14.9051 10.4H33.8949C35.4962 10.4 36.8 11.688 36.8 13.284V38.4L33.7531 35.74L32.0384 34.172L30.2245 32.506L30.9755 35.096H14.9051C13.3038 35.096 12 33.808 12 32.212V13.284C12 11.688 13.3038 10.4 14.9051 10.4Z" fill="white"/>
<path fill-rule="evenodd" clip-rule="evenodd" d="M28.4248 28.6839C28.4248 28.6839 27.9146 28.0819 27.4894 27.5499C29.3459 27.0319 30.0545 25.8839 30.0545 25.8839C29.4734 26.2619 28.9208 26.5279 28.4248 26.7099C27.7162 27.0039 27.036 27.1999 26.3699 27.3119C25.0094 27.5639 23.7624 27.4939 22.6995 27.2979C21.8917 27.1439 21.1973 26.9199 20.6163 26.6959C20.2904 26.5699 19.9361 26.4159 19.5818 26.2199C19.5605 26.2059 19.5393 26.1954 19.518 26.1849C19.4968 26.1744 19.4755 26.1639 19.4542 26.1499C19.4259 26.1359 19.4117 26.1219 19.3976 26.1079C19.1425 25.9679 19.0008 25.8699 19.0008 25.8699C19.0008 25.8699 19.681 26.9899 21.4808 27.5219C21.0556 28.0539 20.5313 28.6839 20.5313 28.6839C17.3994 28.5859 16.209 26.5559 16.209 26.5559C16.209 22.0479 18.2497 18.3939 18.2497 18.3939C20.2904 16.8819 22.2318 16.9239 22.2318 16.9239L22.3736 17.0919C19.8227 17.8199 18.6465 18.9259 18.6465 18.9259C18.6465 18.9259 18.9582 18.7579 19.4826 18.5199C20.9989 17.8619 22.2035 17.6799 22.6995 17.6379L22.7313 17.6326C22.8028 17.6206 22.8662 17.6099 22.9404 17.6099C23.8049 17.4979 24.7827 17.4699 25.803 17.5819C27.1493 17.7359 28.5948 18.1279 30.0686 18.9259C30.0686 18.9259 28.9491 17.8759 26.54 17.1479L26.7384 16.9239C26.7384 16.9239 28.6798 16.8819 30.7205 18.3939C30.7205 18.3939 32.7612 22.0479 32.7612 26.5559C32.7612 26.5559 31.5566 28.5859 28.4248 28.6839ZM22.2342 22.3999C21.4328 22.3999 20.8001 23.1207 20.8001 23.9999C20.8001 24.8792 21.4468 25.5999 22.2342 25.5999C23.0356 25.5999 23.6683 24.8792 23.6683 23.9999C23.6823 23.1207 23.0356 22.3999 22.2342 22.3999ZM25.9319 23.9999C25.9319 23.1207 26.5646 22.3999 27.366 22.3999C28.1674 22.3999 28.8001 23.1207 28.8001 23.9999C28.8001 24.8792 28.1674 25.5999 27.366 25.5999C26.5786 25.5999 25.9319 24.8792 25.9319 23.9999Z" fill="white"/>
</svg>
