<svg width="48" height="48" viewBox="0 0 48 48" fill="none" xmlns="http://www.w3.org/2000/svg">
<path fill-rule="evenodd" clip-rule="evenodd" d="M0 24C0 37.2548 10.7452 48 24 48C37.2548 48 48 37.2548 48 24C48 10.7452 37.2548 0 24 0C10.7452 0 0 10.7452 0 24ZM24.0276 38.4C24.0276 38.4 17.5849 28.7646 15.3043 23.4077C14.7242 22.1591 14.4 20.7651 14.4 19.2947C14.4 13.9405 18.6981 9.6 24 9.6C29.3019 9.6 33.6 13.9405 33.6 19.2947C33.6 20.4729 33.3919 21.602 33.0107 22.6466H33.0209C31.4927 26.7108 24.0276 38.4 24.0276 38.4Z" fill="white"/>
<path d="M23.9999 24.8C27.0927 24.8 29.5999 22.2928 29.5999 19.2C29.5999 16.1072 27.0927 13.6 23.9999 13.6C20.9071 13.6 18.3999 16.1072 18.3999 19.2C18.3999 22.2928 20.9071 24.8 23.9999 24.8Z" fill="white"/>
</svg>
