<svg width="48" height="48" viewBox="0 0 48 48" fill="none" xmlns="http://www.w3.org/2000/svg">
<path fill-rule="evenodd" clip-rule="evenodd" d="M24 0C10.7452 0 0 10.7452 0 24C0 37.2548 10.7452 48 24 48C37.2548 48 48 37.2548 48 24C48 10.7452 37.2548 0 24 0ZM16.7878 12C16.8588 12.0563 16.9151 12.0563 16.9714 12.049C17.2629 12.0245 17.5127 12.0955 17.6743 12.3625C17.7029 12.4088 17.7314 12.4551 17.76 12.5014C18.0941 13.0429 18.4289 13.5854 18.747 14.1404C18.9773 14.5417 19.197 14.9495 19.4169 15.3577C19.5782 15.657 19.7396 15.9566 19.9054 16.254C19.9695 16.3745 20.0497 16.488 20.1299 16.6016C20.1752 16.6657 20.2205 16.7298 20.2629 16.7952C20.3652 16.9579 20.463 17.125 20.5586 17.2881L20.5739 17.3144C20.7797 17.7038 20.7699 18.0956 20.4637 18.4066C20.1415 18.7361 19.7951 19.0482 19.4495 19.3597C19.3275 19.4696 19.2056 19.5794 19.0849 19.6899C18.9349 19.8276 18.7826 19.9632 18.6304 20.0986C18.3901 20.3124 18.1501 20.526 17.9192 20.7479C17.6253 21.032 17.5494 21.3871 17.7478 21.7618C17.7661 21.7961 17.7844 21.8305 17.8028 21.8648C18.0904 22.4035 18.3777 22.9415 18.6931 23.4688C19.9372 25.5431 21.5266 27.3064 23.5348 28.6656C24.3087 29.1921 25.1144 29.6746 25.9275 30.135C26.694 30.5685 26.9928 30.495 27.5879 29.8313C27.9023 29.4822 28.2103 29.13 28.5187 28.7773C28.7533 28.5089 28.9882 28.2402 29.2263 27.9725C29.3586 27.8231 29.5178 27.6909 29.6721 27.5635C29.9855 27.299 30.3284 27.2696 30.6884 27.4509C30.711 27.4619 30.7339 27.4726 30.7569 27.4834C30.8363 27.5207 30.9164 27.5582 30.9847 27.6076C31.6233 28.0645 32.3123 28.4315 33.0004 28.7981C33.3414 28.9798 33.6823 29.1614 34.0166 29.3538C34.3613 29.5519 34.7001 29.7589 35.0379 29.9654C35.2305 30.0831 35.4229 30.2006 35.6158 30.3162C35.9024 30.4852 36.0175 30.7326 35.9979 31.073C35.944 32.0305 35.7848 32.971 35.2289 33.7791C34.9962 34.1147 34.6656 34.4085 34.3325 34.6461C33.4093 35.2926 32.3782 35.6918 31.2811 35.9367C30.2843 36.1596 29.29 36.0788 28.3349 35.78C26.4908 35.2118 24.6736 34.5604 23.0009 33.5734C21.4825 32.6746 20.1013 31.5897 18.8229 30.3775C17.2041 28.837 15.7592 27.157 14.591 25.2443C13.8293 24.0027 13.2857 22.6655 12.7934 21.3014C12.4946 20.4785 12.2007 19.663 12.0685 18.7911C11.9167 17.8042 12.022 16.854 12.3379 15.9184C12.622 15.0735 12.9771 14.2653 13.5134 13.5429C13.9346 12.9821 14.4612 12.5706 15.142 12.3869C15.5267 12.2852 15.9138 12.198 16.3008 12.1108C16.4632 12.0742 16.6256 12.0376 16.7878 12Z" fill="white"/>
</svg>
